<svg width="22" height="22" viewBox="0 0 22 22" fill="none" xmlns="http://www.w3.org/2000/svg">
<path d="M9.56494 6.50294L9.74894 6.49794H17.2489C18.0789 6.49788 18.8775 6.81535 19.4808 7.38525C20.0842 7.95516 20.4467 8.73432 20.4939 9.56294L20.4989 9.74794V11.3079C20.0527 10.8794 19.5477 10.5167 18.9989 10.2309V9.74794C18.9989 9.28382 18.8146 8.8387 18.4864 8.51051C18.1582 8.18232 17.7131 7.99794 17.2489 7.99794H9.74894C9.30975 7.99796 8.88663 8.16312 8.56355 8.46062C8.24048 8.75813 8.04108 9.16624 8.00494 9.60394L7.99894 9.74794V17.2479C7.99898 17.6873 8.16428 18.1106 8.46199 18.4337C8.75971 18.7568 9.16807 18.956 9.60594 18.9919L9.74894 18.9979H10.2309C10.5179 19.5479 10.8809 20.0529 11.3069 20.4979H9.74894C8.91881 20.498 8.12012 20.1804 7.51671 19.6103C6.91331 19.0402 6.55094 18.2608 6.50394 17.4319L6.49894 17.2489V9.74894C6.49889 8.91881 6.8165 8.12012 7.38662 7.51671C7.95673 6.91331 8.73614 6.55094 9.56494 6.50394M14.0809 2.73294L14.1329 2.90994L14.8259 5.49794H13.2729L12.6849 3.29794C12.6255 3.07584 12.5229 2.86761 12.383 2.68517C12.2431 2.50273 12.0686 2.34965 11.8695 2.23468C11.6704 2.11971 11.4506 2.0451 11.2226 2.01512C10.9946 1.98514 10.763 2.00037 10.5409 2.05994L3.29694 4.00094C2.87407 4.11434 2.50907 4.38213 2.27396 4.75145C2.03885 5.12078 1.95071 5.56482 2.02694 5.99594L2.05894 6.14394L4.00094 13.3879C4.09203 13.7283 4.28377 14.0333 4.55105 14.263C4.81833 14.4926 5.14871 14.6362 5.49894 14.6749V16.1809C4.84869 16.1425 4.225 15.9095 3.70879 15.5122C3.19257 15.1149 2.80765 14.5717 2.60394 13.9529L2.55194 13.7769L0.610945 6.53194C0.395948 5.73032 0.495781 4.87681 0.889972 4.14644C1.28416 3.41607 1.94284 2.86418 2.73094 2.60394L2.90894 2.55194L10.1529 0.610945C10.9546 0.395948 11.8081 0.495781 12.5384 0.889972C13.2688 1.28416 13.8207 1.94284 14.0809 2.73094M21.4989 15.9989C21.4989 14.5403 20.9195 13.1413 19.888 12.1099C18.8566 11.0784 17.4576 10.4989 15.9989 10.4989C14.5403 10.4989 13.1413 11.0784 12.1099 12.1099C11.0784 13.1413 10.4989 14.5403 10.4989 15.9989C10.4989 17.4576 11.0784 18.8566 12.1099 19.888C13.1413 20.9195 14.5403 21.4989 15.9989 21.4989C17.4576 21.4989 18.8566 20.9195 19.888 19.888C20.9195 18.8566 21.4989 17.4576 21.4989 15.9989ZM15.9089 12.5059L15.9989 12.4989L16.0889 12.5069C16.1888 12.5252 16.2808 12.5734 16.3526 12.6453C16.4245 12.7171 16.4727 12.809 16.4909 12.9089L16.4989 12.9989V15.4989L19.0039 15.4999L19.0939 15.5079C19.1938 15.5262 19.2858 15.5744 19.3576 15.6463C19.4295 15.7181 19.4777 15.81 19.4959 15.9099L19.5039 15.9999L19.4959 16.0899C19.4776 16.19 19.4292 16.2821 19.3572 16.3539C19.2852 16.4257 19.193 16.4739 19.0929 16.4919L19.0029 16.4999H16.4999V19.0029L16.4919 19.0929C16.4737 19.1929 16.4255 19.2848 16.3536 19.3566C16.2818 19.4285 16.1898 19.4767 16.0899 19.4949L15.9999 19.5029L15.9099 19.4949C15.81 19.4767 15.7181 19.4285 15.6463 19.3566C15.5744 19.2848 15.5262 19.1929 15.5079 19.0929L15.4999 19.0029V16.4989H12.9969L12.9069 16.4909C12.807 16.4727 12.7151 16.4245 12.6432 16.3526C12.5714 16.2808 12.5232 16.1888 12.5049 16.0889L12.4969 15.9989L12.5049 15.9089C12.5232 15.809 12.5714 15.7171 12.6432 15.6452C12.7151 15.5734 12.807 15.5252 12.9069 15.5069L12.9969 15.4989H15.4989V12.9989L15.5069 12.9089C15.525 12.8089 15.5732 12.7167 15.645 12.6447C15.7168 12.5726 15.8089 12.5243 15.9089 12.5059Z" fill="#2067FF"/>
</svg>
